<?xml version="1.0" standalone="no"?>
<!DOCTYPE svg PUBLIC "-//W3C//DTD SVG 20010904//EN"
 "http://www.w3.org/TR/2001/REC-SVG-20010904/DTD/svg10.dtd">
<svg version="1.0" xmlns="http://www.w3.org/2000/svg"
 width="300.000000pt" height="312.000000pt" viewBox="0 0 300.000000 312.000000"
 preserveAspectRatio="xMidYMid meet">
<metadata>
Created by potrace 1.10, written by Peter Selinger 2001-2011
</metadata>
<g transform="translate(0.000000,312.000000) scale(0.100000,-0.100000)"
fill="#000000" stroke="none">
<path d="M1375 3004 c-244 -25 -478 -102 -667 -220 -262 -164 -482 -440 -587
-737 -58 -166 -75 -271 -75 -477 -1 -254 31 -407 130 -619 357 -764 1311
-1058 2038 -627 349 207 590 545 678 949 30 137 32 426 5 561 -90 443 -363
809 -754 1009 -134 69 -284 120 -413 141 -99 16 -286 27 -355 20z m405 -49
c117 -29 243 -76 351 -131 491 -250 796 -782 765 -1333 -3 -64 -15 -159 -27
-211 -12 -52 -23 -110 -26 -127 -6 -36 -12 -40 -32 -20 -11 10 -11 8 -2 -10 9
-17 7 -32 -9 -72 -92 -235 -253 -448 -455 -605 -33 -26 -65 -50 -70 -54 -35
-28 -166 -98 -236 -128 -175 -75 -332 -109 -380 -84 -24 13 -24 13 -5 -9 l19
-21 -89 -2 c-307 -5 -518 38 -742 151 -268 136 -483 347 -621 612 -236 452
-208 1007 72 1429 100 152 178 235 328 352 162 126 413 238 599 268 41 6 82
13 90 15 8 2 103 2 210 0 136 -2 215 -8 260 -20z"/>
<path d="M1380 2289 c-70 -14 -185 -75 -240 -129 -78 -76 -149 -249 -150 -363
0 -19 -7 -30 -22 -36 -13 -5 -32 -19 -43 -31 -19 -21 -20 -36 -20 -430 l0
-408 24 -26 c14 -14 31 -26 40 -26 8 0 28 -12 44 -27 26 -25 28 -25 18 -5
l-12 22 480 0 c320 0 488 4 504 11 52 23 52 25 55 446 3 432 3 436 -59 471
-23 14 -29 24 -29 52 0 19 -4 51 -9 70 -5 19 -12 50 -15 69 -5 29 -4 32 12 26
9 -3 -2 13 -24 37 -23 24 -50 59 -59 78 -26 51 -106 123 -178 158 -99 48 -209
62 -317 41z m257 -40 c121 -45 192 -109 247 -220 34 -68 65 -183 66 -236 0
-22 -4 -23 -79 -23 l-78 0 -6 48 c-14 121 -78 221 -171 270 -71 36 -187 38
-263 3 -96 -43 -162 -142 -179 -270 l-7 -51 -78 0 c-92 0 -89 -4 -64 115 30
139 104 256 202 318 38 24 137 62 183 71 50 9 170 -4 227 -25z m-50 -175 c27
-10 60 -35 91 -69 41 -45 53 -67 70 -131 16 -57 19 -81 11 -91 -9 -10 -71 -13
-285 -13 -154 0 -275 4 -278 9 -8 13 13 108 34 156 20 43 88 113 132 135 61
30 147 31 225 4z m418 -346 l26 -23 0 -405 -1 -405 -26 -22 -25 -23 -494 0
c-350 0 -501 3 -519 11 -14 7 -30 26 -36 43 -6 19 -9 177 -7 414 l2 384 28 24
28 24 499 0 499 0 26 -22z"/>
<path d="M1436 1550 c-106 -32 -136 -174 -51 -249 l35 -30 0 -116 0 -115 60 0
60 0 0 115 0 116 35 30 c87 76 55 217 -56 249 -39 11 -44 11 -83 0z m124 -60
c28 -28 40 -48 40 -69 0 -35 -13 -73 -32 -92 -42 -42 -48 -63 -48 -155 0 -96
-4 -104 -50 -104 -23 0 -30 27 -30 125 0 73 -2 83 -28 115 -39 47 -52 74 -52
105 0 55 66 115 128 115 24 0 42 -10 72 -40z"/>
</g>
</svg>
